<svg xmlns="http://www.w3.org/2000/svg" width="24" height="24" viewBox="0 0 24 24" fill="none" stroke="currentColor" stroke-width="2" stroke-linecap="round" stroke-linejoin="round">
  <path d="m6 14 1.5-2.9A2 2 0 0 1 9.24 10H20a2 2 0 0 1 1.94 2.5l-1.54 6a2 2 0 0 1-1.95 1.5H4a2 2 0 0 1-2-2V5a2 2 0 0 1 2-2h3.9a2 2 0 0 1 1.69.9l.81 1.2a2 2 0 0 0 1.67.9H18a2 2 0 0 1 2 2v2"/>
  <g transform="translate(8.5,7) scale(0.55)">
    <path d="M12 3 2 7.5l10 4.5 10-4.5Z" stroke="#8b5cf6" stroke-width="2.5" fill="none"/>
    <path d="m2 17.5 10 4.5 10-4.5" stroke="#8b5cf6" stroke-width="2.5" fill="none"/>
    <path d="m2 12.5 10 4.5 10-4.5" stroke="#8b5cf6" stroke-width="2.5" fill="none"/>
  </g>
</svg>
