<svg width="700" height="600" viewBox="0 0 700 600" fill="none" xmlns="http://www.w3.org/2000/svg">
<path d="M392.798 264.725C465.899 264.725 525.16 205.464 525.16 132.363C525.16 59.2607 465.899 0 392.798 0C319.696 0 260.435 59.2607 260.435 132.363C260.435 205.464 319.696 264.725 392.798 264.725Z" fill="url(#paint0_linear_6215_5)"/>
<path d="M79.9503 505.935C124.106 505.935 159.901 470.14 159.901 425.985C159.901 381.829 124.106 346.034 79.9503 346.034C35.795 346.034 0 381.829 0 425.985C0 470.14 35.795 505.935 79.9503 505.935Z" fill="#05347A"/>
<path d="M497.749 599.501C526.915 599.501 550.559 575.857 550.559 546.69C550.559 517.524 526.915 493.88 497.749 493.88C468.582 493.88 444.938 517.524 444.938 546.69C444.938 575.857 468.582 599.501 497.749 599.501Z" fill="#05347A"/>
<path d="M698.486 309.667C689.254 258.319 640.327 224.105 589.001 232.938L589 232.929C589 232.929 588.986 232.936 588.972 232.943C588.744 232.982 588.516 233.016 588.288 233.057C572.647 235.869 558.596 242.367 546.867 251.492C504.764 304.264 436.455 333.777 364.888 323.055C276.555 309.82 210.928 239.437 199.917 155.067C195.2 139.177 186.263 124.317 173.169 112.287C134.574 76.8261 74.5391 79.3675 39.0784 117.963C3.61773 156.559 6.15919 216.594 44.7549 252.054C57.7871 264.028 73.2642 271.664 89.4136 275.046C93.9265 275.79 98.7209 275.774 103.408 276.476C169.408 286.365 218.907 337.77 229.382 400.204C228.068 442.124 258.309 479.328 300.808 485.696C333.9 490.654 365.367 475.557 382.884 449.527C415.291 411.201 466.211 390.049 519.493 398.032C527.36 399.211 534.988 400.987 542.346 403.298C548.672 405.26 554.84 407.634 560.813 410.398C561.224 410.616 561.633 410.839 562.048 411.05C562.187 411.121 562.327 411.188 562.466 411.258C562.89 411.463 563.307 411.677 563.728 411.885C581.164 420.344 601.342 423.557 621.876 419.865C622.104 419.824 622.328 419.776 622.555 419.734C622.573 419.736 622.587 419.737 622.587 419.737L622.586 419.728C673.774 410.129 707.718 361.015 698.486 309.667Z" fill="#33004D"/>
<defs>
<linearGradient id="paint0_linear_6215_5" x1="261.896" y1="112.75" x2="523.699" y2="151.975" gradientUnits="userSpaceOnUse">
<stop stop-color="#5559A6"/>
<stop offset="0.3333" stop-color="#1B08A6"/>
<stop offset="0.9123" stop-color="#5559A6"/>
</linearGradient>
</defs>
</svg>
