<svg xmlns="http://www.w3.org/2000/svg" width="24" height="24" viewBox="0 0 24 24" fill="none" stroke="currentColor" stroke-width="1.5" stroke-linecap="round" stroke-linejoin="round">
  <path d="M15 2H6a2 2 0 0 0-2 2v16a2 2 0 0 0 2 2h12a2 2 0 0 0 2-2V7Z"/>
  <path d="M14 2v4a1 1 0 0 0 1 1h4"/>
  <g transform="translate(9,10) scale(0.5)">
    <rect width="7" height="7" x="14" y="3" rx="1" stroke="#f43f5e" stroke-width="2.8" fill="none"/>
    <path d="M10 21V8a1 1 0 0 0-1-1H4a1 1 0 0 0-1 1v12a1 1 0 0 0 1 1h12a1 1 0 0 0 1-1v-5a1 1 0 0 0-1-1H3" stroke="#f43f5e" stroke-width="2.8" fill="none"/>
  </g>
</svg>
