<svg xmlns="http://www.w3.org/2000/svg" width="24" height="24" viewBox="0 0 24 24" fill="none" stroke="currentColor" stroke-width="2" stroke-linecap="round" stroke-linejoin="round">
  <path d="M20 20a2 2 0 0 0 2-2V8a2 2 0 0 0-2-2h-7.9a2 2 0 0 1-1.69-.9L9.6 3.9A2 2 0 0 0 7.93 3H4a2 2 0 0 0-2 2v13a2 2 0 0 0 2 2Z"/>
  <g transform="translate(9,8) scale(0.55)">
    <rect width="7" height="7" x="14" y="3" rx="1" stroke="#f43f5e" stroke-width="2.5" fill="none"/>
    <path d="M10 21V8a1 1 0 0 0-1-1H4a1 1 0 0 0-1 1v12a1 1 0 0 0 1 1h12a1 1 0 0 0 1-1v-5a1 1 0 0 0-1-1H3" stroke="#f43f5e" stroke-width="2.5" fill="none"/>
  </g>
</svg>
