<svg xmlns="http://www.w3.org/2000/svg" width="24" height="24" viewBox="0 0 24 24" fill="none">
<path
    fill="#FB7185"
    stroke="#FFE4E6"
    stroke-width="1"
    stroke-linejoin="round"
    stroke-linecap="round"
    d="M15 2H6a2 2 0 0 0-2 2v16a2 2 0 0 0 2 2h12a2 2 0 0 0 2-2V7Z"
  />
  <!-- Sayfa kıvrımı: rozetin görünmesi için yarı saydam gölge -->
  <path
    fill="#FFE4E6"
    fill-opacity="0.22"
    stroke="#FFE4E6"
    stroke-width="1"
    stroke-linejoin="round"
    stroke-linecap="round"
    d="M15 2v4a1 1 0 0 0 1 1h4Z"
  />
<g transform="translate(4.5,6) scale(0.58)">
    <rect width="7" height="7" x="14" y="3" rx="1" stroke="#FFF1F2" stroke-width="3.2" fill="none" />
    <path d="M10 21V8a1 1 0 0 0-1-1H4a1 1 0 0 0-1 1v12a1 1 0 0 0 1 1h12a1 1 0 0 0 1-1v-5a1 1 0 0 0-1-1H3" stroke="#FFF1F2" stroke-width="3.2" fill="none" stroke-linecap="round" stroke-linejoin="round" />
  </g>
</svg>
