<svg xmlns="http://www.w3.org/2000/svg" width="24" height="24" viewBox="0 0 24 24" fill="none">
<path
    fill="#2563EB"
    stroke="#1E3A8A"
    stroke-width="1"
    stroke-linejoin="round"
    stroke-linecap="round"
    d="M15 2H6a2 2 0 0 0-2 2v16a2 2 0 0 0 2 2h12a2 2 0 0 0 2-2V7Z"
  />
  <!-- Sayfa kıvrımı: rozetin görünmesi için yarı saydam gölge -->
  <path
    fill="#1E3A8A"
    fill-opacity="0.22"
    stroke="#1E3A8A"
    stroke-width="1"
    stroke-linejoin="round"
    stroke-linecap="round"
    d="M15 2v4a1 1 0 0 0 1 1h4Z"
  />
<g transform="translate(5,6) scale(0.58)">
    <path d="M8 3H7a2 2 0 0 0-2 2v5a2 2 0 0 1-2 2 2 2 0 0 1 2 2v5c0 1.1.9 2 2 2h1" stroke="#DBEAFE" stroke-width="3.4" fill="none" stroke-linecap="round" />
    <path d="M16 21h1a2 2 0 0 0 2-2v-5c0-1.1.9-2 2-2a2 2 0 0 1-2-2V5a2 2 0 0 0-2-2h-1" stroke="#DBEAFE" stroke-width="3.4" fill="none" stroke-linecap="round" />
  </g>
</svg>
