<svg xmlns="http://www.w3.org/2000/svg" width="24" height="24" viewBox="0 0 24 24" fill="none">
<g stroke="#424242" stroke-width="1.5" stroke-linecap="round" stroke-linejoin="round" fill="none"><path d="M15 2H6a2 2 0 0 0-2 2v16a2 2 0 0 0 2 2h12a2 2 0 0 0 2-2V7Z" />
  <path d="M14 2v4a1 1 0 0 0 1 1h4" /></g>
<g transform="translate(7.5,10) scale(0.52)">
    <path d="M2.062 12.348a1 1 0 0 1 0-.696 10.75 10.75 0 0 1 19.876 0 1 1 0 0 1 0 .696 10.75 10.75 0 0 1-19.876 0" stroke="#22c55e" stroke-width="2.8" fill="none" />
    <circle cx="12" cy="12" r="3" stroke="#22c55e" stroke-width="2.8" fill="none" />
  </g>
</svg>
