<svg xmlns="http://www.w3.org/2000/svg" width="24" height="24" viewBox="0 0 24 24" fill="none">
<g stroke="#cccccc" stroke-width="1.5" stroke-linecap="round" stroke-linejoin="round" fill="none"><path d="M15 2H6a2 2 0 0 0-2 2v16a2 2 0 0 0 2 2h12a2 2 0 0 0 2-2V7Z" />
  <path d="M14 2v4a1 1 0 0 0 1 1h4" /></g>
<g transform="translate(9,10) scale(0.5)">
    <rect width="8" height="8" x="3" y="3" rx="2" stroke="#a78bfa" stroke-width="2.8" fill="none" />
    <path d="M7 11v4a2 2 0 0 0 2 2h4" stroke="#a78bfa" stroke-width="2.8" fill="none" />
    <rect width="8" height="8" x="13" y="13" rx="2" stroke="#a78bfa" stroke-width="2.8" fill="none" />
  </g>
</svg>
