<svg xmlns="http://www.w3.org/2000/svg" width="24" height="24" viewBox="0 0 24 24" fill="none">
<path
    fill="#8B5CF6"
    stroke="#EDE9FE"
    stroke-width="1"
    stroke-linejoin="round"
    stroke-linecap="round"
    d="M15 2H6a2 2 0 0 0-2 2v16a2 2 0 0 0 2 2h12a2 2 0 0 0 2-2V7Z"
  />
  <!-- Sayfa kıvrımı: rozetin görünmesi için yarı saydam gölge -->
  <path
    fill="#EDE9FE"
    fill-opacity="0.22"
    stroke="#EDE9FE"
    stroke-width="1"
    stroke-linejoin="round"
    stroke-linecap="round"
    d="M15 2v4a1 1 0 0 0 1 1h4Z"
  />
<g transform="translate(7,8) scale(0.55)">
    <rect width="8" height="8" x="3" y="3" rx="2" stroke="#FAF5FF" stroke-width="3.2" fill="none" />
    <path d="M7 11v4a2 2 0 0 0 2 2h4" stroke="#FAF5FF" stroke-width="3.2" fill="none" />
    <rect width="8" height="8" x="13" y="13" rx="2" stroke="#FAF5FF" stroke-width="3.2" fill="none" />
  </g>
</svg>
