<svg xmlns="http://www.w3.org/2000/svg" width="24" height="24" viewBox="0 0 24 24" fill="none" stroke="currentColor" stroke-width="2" stroke-linecap="round" stroke-linejoin="round">
  <path d="M20 20a2 2 0 0 0 2-2V8a2 2 0 0 0-2-2h-7.9a2 2 0 0 1-1.69-.9L9.6 3.9A2 2 0 0 0 7.93 3H4a2 2 0 0 0-2 2v13a2 2 0 0 0 2 2Z"/>
  <g transform="translate(9,8) scale(0.55)">
    <rect width="8" height="8" x="3" y="3" rx="2" stroke="#a78bfa" stroke-width="2.5" fill="none"/>
    <path d="M7 11v4a2 2 0 0 0 2 2h4" stroke="#a78bfa" stroke-width="2.5" fill="none"/>
    <rect width="8" height="8" x="13" y="13" rx="2" stroke="#a78bfa" stroke-width="2.5" fill="none"/>
  </g>
</svg>
