<svg xmlns="http://www.w3.org/2000/svg" width="24" height="24" viewBox="0 0 24 24" fill="none" stroke="currentColor" stroke-width="2" stroke-linecap="round" stroke-linejoin="round">
  <path d="m6 14 1.5-2.9A2 2 0 0 1 9.24 10H20a2 2 0 0 1 1.94 2.5l-1.54 6a2 2 0 0 1-1.95 1.5H4a2 2 0 0 1-2-2V5a2 2 0 0 1 2-2h3.9a2 2 0 0 1 1.69.9l.81 1.2a2 2 0 0 0 1.67.9H18a2 2 0 0 1 2 2v2"/>
  <g transform="translate(8.5,7) scale(0.6)">
    <path d="m18 16 4-4-4-4" stroke="#f97316" stroke-width="3.2" fill="none"/>
    <path d="m6 8-4 4 4 4" stroke="#f97316" stroke-width="3.2" fill="none"/>
  </g>
</svg>
